<svg width="130" height="45" viewBox="0 0 130 45" fill="none" xmlns="http://www.w3.org/2000/svg">
<path d="M95.2668 27.9861H106.904C105.483 29.7459 103.531 31.5703 101.468 32.9209C98.4849 34.8745 95.2355 36.0392 92.775 36.0392H82.8368L86.7479 28.1584H76.3908L68.2457 44.5738H94.292C102.674 44.5738 112.733 37.9889 116.76 29.8653L117.608 28.1564L121.84 19.4789H99.3756L95.2668 27.9861Z" fill="url(#paint0_linear_1_6)"/>
<path d="M104.629 0C96.4276 0.420859 86.9005 6.83358 83.0091 14.685L81.9442 16.8304H92.6477C94.0414 15.0002 95.8893 13.2639 97.9838 11.8447C100.793 9.94206 103.923 8.71472 106.403 8.53659H125.314L129.546 0H104.629Z" fill="url(#paint1_linear_1_6)"/>
<path d="M101.468 32.9209C98.4849 34.8745 95.2355 36.0392 92.775 36.0392H82.8368L86.7479 28.1583H76.3908L68.2457 44.5738H83.5082C91.8902 44.5738 101.95 37.9888 105.976 29.8653L106.902 27.9841C105.483 29.7459 103.531 31.5702 101.468 32.9209Z" fill="url(#paint2_linear_1_6)"/>
<path d="M88.5527 11.1499C86.2957 12.295 83.3399 14.9983 81.9462 16.8285V16.8305H92.6497C94.0434 15.0002 95.8913 13.264 97.9858 11.8448C100.795 9.9421 103.925 8.71476 106.405 8.53663C97.7098 8.41526 92.499 9.14541 88.5527 11.1499Z" fill="url(#paint3_linear_1_6)"/>
<path d="M22.0922 44.7187H15.6599L17.4059 30.0395L4.97592 44.7187H0L0.947422 19.4808H8.48374L7.5324 33.1441L19.0033 19.4808H25.0558L24.0438 33.1441L35.9766 19.4808H45.0613L22.0922 44.7187Z" fill="#3E3ED4"/>
<path d="M44.1041 27.855L35.7378 44.7187H44.2685L52.6367 27.855H44.1041Z" fill="#3E3ED4"/>
<path d="M90.9819 19.4808H59.9029L57.0646 25.2026H62.6277L52.9284 44.7187H61.0676L70.7337 25.2026H88.1435L90.9819 19.4808Z" fill="#3E3ED4"/>
<path d="M56.7905 19.4808H47.9603L45.1024 25.2026H53.9522L56.7905 19.4808Z" fill="#3E3ED4"/>
<defs>
<linearGradient id="paint0_linear_1_6" x1="95.044" y1="43.4621" x2="95.044" y2="2.18476" gradientUnits="userSpaceOnUse">
<stop stop-color="#3E56F6"/>
<stop offset="0.5056" stop-color="#33FFDC"/>
<stop offset="0.8631" stop-color="#52FFA7"/>
<stop offset="1" stop-color="#22B573"/>
</linearGradient>
<linearGradient id="paint1_linear_1_6" x1="105.746" y1="42.9279" x2="105.746" y2="1.81737" gradientUnits="userSpaceOnUse">
<stop stop-color="#33FFDC"/>
<stop offset="0.5782" stop-color="#33FFDC"/>
<stop offset="0.8631" stop-color="#51FFA8"/>
<stop offset="1" stop-color="#47FFAC"/>
</linearGradient>
<linearGradient id="paint2_linear_1_6" x1="77.4514" y1="18.745" x2="111.397" y2="77.5398" gradientUnits="userSpaceOnUse">
<stop stop-color="#4051F5"/>
<stop offset="0.5782" stop-color="#2AD6FF"/>
</linearGradient>
<linearGradient id="paint3_linear_1_6" x1="94.1752" y1="29.7108" x2="94.1752" y2="9.41984" gradientUnits="userSpaceOnUse">
<stop stop-color="#49FFAB"/>
<stop offset="0.5503" stop-color="#47FFC4"/>
<stop offset="1" stop-color="#3FD5FF"/>
</linearGradient>
</defs>
</svg>
